<?xml version="1.0" encoding="iso-8859-1"?>
<!-- Uploaded to: SVG Repo, www.svgrepo.com, Generator: SVG Repo Mixer Tools -->
<svg fill="#000000" height="800px" width="800px" version="1.1" id="Layer_1" xmlns="http://www.w3.org/2000/svg" xmlns:xlink="http://www.w3.org/1999/xlink" 
	 viewBox="0 0 330 330" xml:space="preserve">
<g id="XMLID_243_">
	<path id="XMLID_244_" d="M85,330h160c8.284,0,15-6.716,15-15V44.926V15c0-8.284-6.716-15-15-15s-15,6.716-15,15v14.926H85
		c-8.284,0-15,6.716-15,15V315C70,323.284,76.716,330,85,330z M185,270h-40c-8.284,0-15-6.716-15-15c0-8.284,6.716-15,15-15h40
		c8.284,0,15,6.716,15,15C200,263.284,193.284,270,185,270z M100,119.926h130v60H100V119.926z"/>
</g>
</svg>